<svg width="444" height="397" viewBox="0 0 444 397" fill="none" xmlns="http://www.w3.org/2000/svg">
<g filter="url(#filter0_d_322_2517)">
<path d="M111.102 194.171C105.55 210.207 100.005 226.633 94.4594 243.534C89.1185 243.969 83.7843 244.438 78.4434 244.933C75.8126 236.169 73.1751 227.286 70.5377 218.272C67.8343 227.537 65.1375 236.941 62.4407 246.497C57.1064 247.045 51.7788 247.625 46.4511 248.226C40.985 230.863 35.4991 212.92 30 194.309C36.4354 194.296 42.8642 194.283 49.2996 194.27C51.6271 203.766 53.9547 213.131 56.2756 222.363C58.946 212.84 61.6165 203.469 64.2935 194.243C68.4673 194.237 72.641 194.23 76.8148 194.224C79.4523 203.232 82.0897 212.108 84.7206 220.872C87.1075 211.87 89.4944 202.988 91.8878 194.204C98.2969 194.197 104.699 194.184 111.108 194.177L111.102 194.171Z" fill="#E1B308"/>
<path d="M139.309 233.344C134.041 233.582 128.772 233.839 123.511 234.123C122.706 236.598 121.902 239.079 121.097 241.567C114.662 241.983 108.227 242.445 101.798 242.94C108.062 226.204 114.332 209.976 120.596 194.151C127.882 194.144 135.162 194.138 142.448 194.131C148.626 209.527 154.811 224.607 161.002 239.488C154.56 239.739 148.118 240.036 141.683 240.366C140.892 238.03 140.1 235.687 139.309 233.338V233.344ZM135.907 223.129C134.43 218.681 132.953 214.213 131.476 209.719C129.972 214.272 128.469 218.852 126.966 223.459C129.946 223.346 132.926 223.234 135.9 223.129H135.907Z" fill="#E1B308"/>
<path d="M188.023 224.924C186.348 224.95 184.667 224.976 182.992 225.003C182.985 229.596 182.979 234.196 182.972 238.789C176.979 238.941 170.992 239.125 164.998 239.343C165.031 224.27 165.064 209.191 165.097 194.118C172.963 194.118 180.836 194.111 188.702 194.105C204.092 194.105 212.307 199.727 212.301 209.956C212.301 215.579 209.34 219.506 204.388 221.881C208.325 227.359 212.261 232.83 216.204 238.307C209.703 238.333 203.208 238.393 196.707 238.498C193.806 233.978 190.911 229.451 188.016 224.91L188.023 224.924ZM183.012 213.513C184.898 213.494 186.79 213.474 188.676 213.454C192.348 213.421 194.188 212.392 194.188 210.042C194.188 207.693 192.355 206.624 188.689 206.644C186.803 206.657 184.911 206.67 183.025 206.683C183.025 208.96 183.018 211.237 183.012 213.513Z" fill="#E1B308"/>
<path d="M243.205 224.765C241.53 224.752 239.849 224.732 238.174 224.726C238.174 229.279 238.174 233.833 238.181 238.393C232.187 238.333 226.193 238.3 220.2 238.307C220.2 223.571 220.2 208.841 220.2 194.105C228.066 194.105 235.939 194.105 243.805 194.105C259.194 194.092 267.423 199.8 267.443 210.194C267.456 215.902 264.509 219.829 259.564 222.106C263.513 227.715 267.463 233.371 271.412 239.079C264.918 238.875 258.416 238.71 251.922 238.584C249.014 233.951 246.106 229.345 243.198 224.759L243.205 224.765ZM238.167 213.335C240.06 213.342 241.946 213.355 243.831 213.368C247.504 213.395 249.337 212.392 249.337 210.042C249.337 207.693 247.497 206.604 243.825 206.591C241.939 206.584 240.047 206.578 238.161 206.571C238.161 208.828 238.161 211.085 238.161 213.342L238.167 213.335Z" fill="#E1B308"/>
<path d="M293.257 194.131C293.297 209.402 293.336 224.666 293.376 239.937C287.389 239.66 281.402 239.422 275.408 239.218C275.375 224.185 275.349 209.151 275.316 194.118C281.296 194.118 287.277 194.125 293.257 194.131Z" fill="#E1B308"/>
<path d="M356.965 219.182C357.005 234.097 344.365 244.048 327.617 242.768C310.863 241.527 298.143 230.698 298.11 217.15C298.077 203.674 310.731 193.425 327.472 193.346C344.22 193.227 356.932 204.347 356.965 219.182ZM339.024 218.443C339.004 212.603 334.131 208.326 327.511 208.208C320.891 208.082 316.038 212.022 316.058 217.651C316.071 223.346 320.951 227.511 327.571 227.841C334.191 228.177 339.044 224.356 339.024 218.443Z" fill="#E1B308"/>
<path d="M385.911 230.685C384.236 230.559 382.568 230.441 380.893 230.322C380.9 235.687 380.913 241.059 380.92 246.424C374.952 245.81 368.979 245.236 363.005 244.695C362.965 227.867 362.919 211.039 362.879 194.21C370.746 194.224 378.618 194.237 386.485 194.25C401.881 194.197 410.096 201.259 410.096 214.16C410.096 221.215 407.156 225.94 402.224 228.448C406.153 235.509 410.083 242.748 414 250.179C407.538 249.374 401.076 248.615 394.608 247.896C391.713 242.055 388.812 236.327 385.911 230.691V230.685ZM380.867 216.899C382.753 216.985 384.638 217.07 386.524 217.163C390.19 217.341 392.017 216.213 392.017 213.388C392.017 210.564 390.177 209.211 386.511 209.099C384.625 209.039 382.739 208.98 380.854 208.927C380.854 211.586 380.86 214.246 380.867 216.905V216.899Z" fill="#E1B308"/>
<path d="M69.8452 152.213C69.8452 163.616 61.8274 171.172 48.706 171.172H41.0047V188.245H30.3164V133.18H48.706C61.834 133.18 69.8452 140.809 69.8452 152.219V152.213ZM58.9987 152.213C58.9987 146.392 55.2272 143.086 48.6995 143.086H40.9981V161.26H48.6995C55.2206 161.26 58.9987 157.954 58.9987 152.213Z" fill="white"/>
<path d="M102.622 177.31H79.9864L76.2939 188.245H64.9727L84.7799 133.18H97.8287L117.636 188.245H106.315L102.622 177.31ZM99.398 167.793L91.301 143.957L83.2041 167.793H99.398Z" fill="white"/>
<path d="M148.527 143.086H135.32V188.238H124.632V143.086H111.425V133.174H148.521V143.086H148.527Z" fill="white"/>
<path d="M198.981 133.174V188.238H188.293V165.424H165.499V188.238H154.811V133.174H165.499V155.512H188.293V133.174H198.981Z" fill="white"/>
<path d="M260.447 160.706C260.447 176.835 248.737 189.261 232.464 189.261C216.191 189.261 204.48 176.835 204.48 160.706C204.48 144.577 216.191 132.23 232.464 132.23C248.737 132.23 260.447 144.577 260.447 160.706ZM249.759 160.706C249.759 151.579 243.864 142.38 232.47 142.38C221.077 142.38 215.182 151.586 215.182 160.706C215.182 169.826 221.077 179.111 232.47 179.111C243.864 179.111 249.759 169.905 249.759 160.706Z" fill="white"/>
<path d="M318.762 157.089V188.238H313.025L311.608 180.372C307.915 185.724 302.1 189.261 293.528 189.261C277.182 189.261 265.544 176.835 265.544 160.706C265.544 144.577 277.176 132.23 293.528 132.23C302.647 132.23 310.348 136.084 315.3 142.38L306.497 148.279C303.59 144.742 299.264 142.38 293.528 142.38C282.134 142.38 276.239 151.586 276.239 160.706C276.239 169.826 282.134 179.032 293.528 179.032C303.115 179.032 308.304 173.449 309.873 166.368H294.233V157.083H318.755L318.762 157.089Z" fill="white"/>
<path d="M357.512 178.333V188.245H325.052V133.18H356.807V143.092H335.661V155.519H354.993V165.431H335.661V178.333H357.512Z" fill="white"/>
<path d="M407.736 133.174V188.238H398.07L373.706 151.817V188.238H363.018V133.174H372.684L397.048 169.595V133.174H407.736Z" fill="white"/>
<path d="M232.359 163.728C234.129 163.728 235.563 162.292 235.563 160.521C235.563 158.75 234.129 157.314 232.359 157.314C230.589 157.314 229.154 158.75 229.154 160.521C229.154 162.292 230.589 163.728 232.359 163.728Z" fill="white"/>
<path d="M213.112 157.314V163.623L223.253 160.468L213.112 157.314Z" fill="white"/>
<path d="M241.458 160.521L251.777 163.623V157.314L241.458 160.521Z" fill="white"/>
<path d="M229.292 179.817H235.596L232.444 169.668L229.292 179.817Z" fill="white"/>
<path d="M232.444 151.447L235.596 141.119H229.292L232.444 151.447Z" fill="white"/>
<path d="M229.292 132.395H235.596L232.444 129.188L229.292 132.395Z" fill="white"/>
<path d="M235.596 189.083H229.292L232.444 192.29L235.596 189.083Z" fill="white"/>
<path d="M204.659 163.893V157.584L201.461 160.739L204.659 163.893Z" fill="white"/>
<path d="M260.276 157.584V163.893L263.481 160.739L260.276 157.584Z" fill="white"/>
<path d="M87.3714 266.592L79.0503 267.344L78.0546 271.488L73.894 271.864L79.347 250.958L84.1471 250.522L93.2595 270.109L89.099 270.485L87.378 266.592H87.3714ZM85.8681 263.2L82.1031 254.706L79.9206 263.741L85.8747 263.2H85.8681Z" fill="white"/>
<path d="M107.752 263.444L111.154 265.338C109.506 267.793 106.783 269.456 103.4 269.72C97.4134 270.175 92.7517 265.932 92.2967 259.999C91.8417 254.066 95.8045 249.189 101.792 248.727C105.174 248.47 108.121 249.671 110.119 251.875L107.04 254.264C105.873 253.043 104.185 252.298 102.075 252.463C97.8815 252.786 95.9694 256.336 96.2265 259.695C96.4837 263.081 98.9167 266.301 103.11 265.985C105.22 265.82 106.776 264.83 107.746 263.444H107.752Z" fill="white"/>
<path d="M125.166 264.196L125.397 267.846L113.436 268.611L112.137 248.325L123.834 247.579L124.065 251.228L116.278 251.723L116.568 256.303L123.689 255.848L123.92 259.497L116.799 259.953L117.102 264.704L125.153 264.189L125.166 264.196Z" fill="white"/>
<path d="M147.512 250.008L142.646 250.245L143.457 266.889L139.514 267.08L138.703 250.437L133.837 250.674L133.659 247.018L147.334 246.345L147.512 250.001V250.008Z" fill="white"/>
<path d="M165.796 245.626L166.568 265.932L162.625 266.083L162.301 257.669L153.895 257.993L154.218 266.407L150.275 266.559L149.497 246.253L153.44 246.101L153.756 254.337L162.163 254.013L161.846 245.771L165.789 245.619L165.796 245.626Z" fill="white"/>
<path d="M181.041 261.88L181.14 265.536L169.166 265.866L168.599 245.553L180.316 245.23L180.414 248.886L172.614 249.103L172.739 253.69L179.874 253.492L179.973 257.148L172.838 257.346L172.97 262.104L181.028 261.88H181.041Z" fill="white"/>
<path d="M217.602 244.675L211.292 265.067L207.751 265.107L203.663 251.796L199.859 265.193L196.318 265.232L189.573 244.979L193.747 244.933L198.131 258.824L202.074 244.847L205.088 244.814L209.327 258.732L213.415 244.722L217.596 244.675H217.602Z" fill="white"/>
<path d="M228.805 261.028L220.451 261.015L219.079 265.047H214.899L222.244 244.722H227.058L234.337 265.074H230.157L228.798 261.028H228.805ZM227.625 257.511L224.651 248.708L221.644 257.504L227.625 257.518V257.511Z" fill="white"/>
<path d="M247.557 265.239L243.469 257.867C243.383 257.867 243.265 257.867 243.153 257.867L240.047 257.828L239.955 265.14L236.038 265.094L236.289 244.774L243.304 244.86C247.86 244.92 250.841 247.744 250.795 251.605C250.762 254.159 249.377 256.119 247.155 257.102L252.041 265.292L247.544 265.239H247.557ZM240.093 254.429L243.199 254.469C245.23 254.495 246.746 253.584 246.773 251.552C246.792 249.724 245.474 248.543 243.271 248.516L240.166 248.477L240.093 254.429Z" fill="white"/>
<path d="M281.514 255.901C281.343 261.847 276.886 266.308 270.886 266.136C264.885 265.958 260.698 261.253 260.87 255.3C261.041 249.348 265.499 244.92 271.499 245.098C277.499 245.269 281.693 249.955 281.514 255.907V255.901ZM277.571 255.789C277.67 252.423 275.593 248.965 271.387 248.839C267.18 248.714 264.905 252.047 264.813 255.412C264.714 258.811 266.791 262.269 270.998 262.388C275.204 262.507 277.473 259.181 277.571 255.782V255.789Z" fill="white"/>
<path d="M301.005 246.543L300.154 266.849L296.587 266.697L288.167 252.885L287.6 266.314L283.657 266.149L284.508 245.843L288.075 245.995L296.495 259.808L297.055 246.378L300.998 246.543H301.005Z" fill="white"/>
<path d="M323.496 264.11L315.155 263.609L313.553 267.555L309.386 267.304L317.898 247.454L322.705 247.744L328.784 268.472L324.617 268.222L323.496 264.11ZM322.52 260.533L320.067 251.572L316.56 260.171L322.527 260.527L322.52 260.533Z" fill="white"/>
<path d="M353.279 249.928L351.743 270.195L347.807 269.898L348.822 256.462L342.031 265.82L340.732 265.721L335.397 255.445L334.382 268.875L330.479 268.578L332.015 248.312L336.182 248.628L341.846 259.537L349.086 249.605L353.279 249.922V249.928Z" fill="white"/>
<path d="M366.071 271.502L362.576 263.833C362.491 263.827 362.372 263.813 362.26 263.807L359.168 263.523L358.502 270.809L354.598 270.452L356.451 250.206L363.447 250.846C367.983 251.261 370.733 254.31 370.383 258.158C370.153 260.705 368.61 262.546 366.322 263.358L370.548 271.911L366.071 271.502ZM359.477 260.138L362.57 260.421C364.594 260.606 366.177 259.821 366.368 257.795C366.533 255.973 365.313 254.693 363.117 254.495L360.025 254.211L359.484 260.138H359.477Z" fill="white"/>
<path d="M222.059 299.027C215.169 293.616 205.193 284.971 194.412 272.98C186.513 273.105 178.686 273.29 170.958 273.521C196.997 306.194 222.006 321.458 222.006 321.458C222.006 321.458 247.168 306.326 273.311 273.527C265.584 273.29 257.75 273.112 249.851 272.98C239.018 285.01 228.982 293.642 222.059 299.027Z" fill="#E1B308"/>
<path d="M132.485 105.489C148.395 98.8769 183.117 86.4834 219.732 86.4834C220.411 86.4834 221.09 86.4834 221.769 86.4966H222H222.231C222.91 86.49 223.596 86.4834 224.268 86.4834C260.889 86.4834 295.618 98.8835 311.515 105.489C311.812 110.327 312.029 116.411 311.858 122.634H330.116C330.498 107.258 328.777 93.2015 328.777 93.2015C328.777 93.2015 279.173 68.2166 224.268 68.2166C223.517 68.2166 222.752 68.2166 222 68.2298C221.242 68.2232 220.49 68.2166 219.732 68.2166C164.833 68.2166 115.223 93.2015 115.223 93.2015C115.223 93.2015 113.469 106.981 113.99 122.634H132.254C132.017 116.339 132.201 110.281 132.478 105.489H132.485Z" fill="#E1B308"/>
<path d="M276.543 291.893C255.436 315.506 234.337 330.836 222 338.748C209.934 331.001 189.401 316.113 168.757 293.339C163.152 287.162 157.877 280.76 152.919 274.168C143.134 274.577 133.514 275.072 124.078 275.639C166.851 339.534 221.994 367 221.994 367C221.994 367 277.143 339.534 319.909 275.639C310.474 275.065 300.853 274.57 291.068 274.168C286.493 280.246 281.653 286.165 276.53 291.893H276.543Z" fill="#1EB1E0"/>
<path d="M99.3914 118.714C98.9694 105.938 100.374 91.9345 101.646 82.3325C108.59 79.1648 118.638 74.9083 130.81 70.6913C169.739 57.2023 200.36 54.3712 219.185 54.3712C220.022 54.3712 220.853 54.3712 221.69 54.3844H222H222.31C223.141 54.3712 223.985 54.3712 224.816 54.3712C258.931 54.3712 291.701 63.2473 313.19 70.6913C325.355 74.9083 335.404 79.1648 342.347 82.3325C343.62 91.9411 345.024 105.938 344.602 118.714C344.556 120.021 344.503 121.328 344.444 122.634H368.82C368.867 121.598 368.906 120.562 368.946 119.52C369.783 94.2838 364.469 66.0058 364.469 66.0058C364.469 66.0058 298.157 30 224.816 30C223.879 30 222.936 30 222 30.0198C221.057 30.0066 220.127 30 219.185 30C145.85 30 79.5314 66.0058 79.5314 66.0058C79.5314 66.0058 74.217 94.2838 75.0543 119.52C75.0873 120.562 75.1335 121.598 75.1796 122.634H99.5563C99.4969 121.328 99.4442 120.028 99.398 118.714H99.3914Z" fill="#1EB1E0"/>
</g>
<defs>
<filter id="filter0_d_322_2517" x="0" y="0" width="444" height="397" filterUnits="userSpaceOnUse" color-interpolation-filters="sRGB">
<feFlood flood-opacity="0" result="BackgroundImageFix"/>
<feColorMatrix in="SourceAlpha" type="matrix" values="0 0 0 0 0 0 0 0 0 0 0 0 0 0 0 0 0 0 127 0" result="hardAlpha"/>
<feOffset/>
<feGaussianBlur stdDeviation="15"/>
<feComposite in2="hardAlpha" operator="out"/>
<feColorMatrix type="matrix" values="0 0 0 0 0 0 0 0 0 0 0 0 0 0 0 0 0 0 0.5 0"/>
<feBlend mode="normal" in2="BackgroundImageFix" result="effect1_dropShadow_322_2517"/>
<feBlend mode="normal" in="SourceGraphic" in2="effect1_dropShadow_322_2517" result="shape"/>
</filter>
</defs>
</svg>
