<svg width="1348" height="1189" viewBox="0 0 1348 1189" fill="none" xmlns="http://www.w3.org/2000/svg">
<g filter="url(#filter0_d_324_2651)">
<path d="M302.029 579.997C283.407 633.721 264.807 688.749 246.207 745.369C228.293 746.829 210.401 748.398 192.487 750.056C183.663 720.696 174.817 690.938 165.97 660.738C156.902 691.778 147.857 723.283 138.811 755.296C120.919 757.131 103.05 759.077 85.1798 761.089C66.8455 702.921 48.4449 642.807 30 580.461C51.5854 580.417 73.1486 580.373 94.734 580.328C102.541 612.143 110.348 643.515 118.133 674.445C127.09 642.542 136.047 611.148 145.026 580.24C159.026 580.218 173.025 580.196 187.025 580.174C195.871 610.352 204.718 640.088 213.542 669.448C221.548 639.292 229.554 609.534 237.582 580.107C259.079 580.085 280.554 580.041 302.051 580.019L302.029 579.997Z" fill="#E1B308"/>
<path d="M396.641 711.234C378.971 712.03 361.3 712.892 343.651 713.843C340.953 722.133 338.255 730.446 335.557 738.781C313.971 740.174 292.386 741.722 270.823 743.38C291.833 687.312 312.865 632.947 333.876 579.93C358.314 579.908 382.73 579.886 407.169 579.864C427.892 631.444 448.636 681.962 469.404 731.817C447.796 732.657 426.189 733.652 404.603 734.757C401.949 726.931 399.295 719.082 396.641 711.212V711.234ZM385.23 677.009C380.275 662.108 375.321 647.141 370.367 632.085C365.325 647.34 360.283 662.683 355.24 678.115C365.237 677.739 375.233 677.363 385.207 677.009H385.23Z" fill="#E1B308"/>
<path d="M560.035 683.023C554.418 683.111 548.778 683.2 543.161 683.288C543.139 698.676 543.117 714.086 543.094 729.473C522.991 729.982 502.909 730.601 482.806 731.33C482.916 680.834 483.027 630.316 483.138 579.82C509.522 579.82 535.929 579.798 562.313 579.776C613.933 579.776 641.489 598.612 641.467 632.881C641.467 651.717 631.537 664.872 614.928 672.831C628.131 691.181 641.334 709.509 654.56 727.859C632.753 727.948 610.969 728.147 589.162 728.501C579.431 713.356 569.722 698.19 560.013 682.979L560.035 683.023ZM543.227 644.797C549.552 644.731 555.9 644.665 562.225 644.598C574.544 644.488 580.714 641.039 580.714 633.168C580.714 625.297 574.566 621.716 562.269 621.782C555.944 621.826 549.597 621.871 543.271 621.915C543.271 629.542 543.249 637.17 543.227 644.797Z" fill="#E1B308"/>
<path d="M745.126 682.492C739.508 682.448 733.868 682.382 728.251 682.36C728.251 697.615 728.251 712.87 728.273 728.147C708.169 727.948 688.066 727.837 667.962 727.859C667.962 678.491 667.962 629.144 667.962 579.776C694.347 579.776 720.754 579.776 747.138 579.776C798.757 579.731 826.358 598.855 826.424 633.677C826.469 652.801 816.583 665.955 799.996 673.583C813.243 692.375 826.491 711.322 839.738 730.446C817.954 729.761 796.147 729.208 774.363 728.788C764.61 713.268 754.857 697.836 745.103 682.47L745.126 682.492ZM728.229 644.2C734.576 644.222 740.901 644.267 747.227 644.311C759.545 644.399 765.694 641.039 765.694 633.168C765.694 625.297 759.523 621.649 747.204 621.605C740.879 621.583 734.532 621.561 728.207 621.539C728.207 629.1 728.207 636.661 728.207 644.222L728.229 644.2Z" fill="#E1B308"/>
<path d="M913.009 579.864C913.142 631.024 913.274 682.161 913.407 733.32C893.326 732.392 873.244 731.596 853.141 730.91C853.03 680.547 852.942 630.183 852.831 579.82C872.89 579.82 892.95 579.842 913.009 579.864Z" fill="#E1B308"/>
<path d="M1126.7 663.789C1126.83 713.754 1084.43 747.094 1028.26 742.805C972.059 738.648 929.397 702.368 929.287 656.979C929.176 611.833 971.617 577.499 1027.77 577.233C1083.94 576.835 1126.58 614.088 1126.7 663.789ZM1066.52 661.312C1066.45 641.746 1050.11 627.42 1027.9 627.022C1005.7 626.602 989.42 639.801 989.487 658.659C989.531 677.739 1005.9 691.69 1028.1 692.795C1050.31 693.923 1066.58 681.122 1066.52 661.312Z" fill="#E1B308"/>
<path d="M1223.79 702.324C1218.17 701.904 1212.57 701.506 1206.95 701.108C1206.98 719.082 1207.02 737.079 1207.04 755.053C1187.03 752.997 1166.99 751.073 1146.95 749.261C1146.82 692.883 1146.67 636.506 1146.53 580.129C1172.92 580.174 1199.32 580.218 1225.71 580.262C1277.35 580.085 1304.91 603.741 1304.91 646.964C1304.91 670.598 1295.04 686.428 1278.5 694.829C1291.68 718.485 1304.86 742.739 1318 767.633C1296.33 764.936 1274.65 762.393 1252.96 759.983C1243.25 740.417 1233.52 721.227 1223.79 702.346V702.324ZM1206.87 656.139C1213.19 656.426 1219.52 656.714 1225.84 657.023C1238.14 657.62 1244.26 653.84 1244.26 644.377C1244.26 634.915 1238.09 630.382 1225.8 630.007C1219.47 629.808 1213.15 629.609 1206.82 629.432C1206.82 638.341 1206.84 647.251 1206.87 656.161V656.139Z" fill="#E1B308"/>
<path d="M163.648 439.43C163.648 477.634 136.755 502.948 92.7435 502.948H66.9119V560.143H31.0616V375.669H92.7435C136.777 375.669 163.648 401.226 163.648 439.452V439.43ZM127.267 439.43C127.267 419.93 114.616 408.854 92.7214 408.854H66.8898V469.741H92.7214C114.594 469.741 127.267 458.665 127.267 439.43Z" fill="white"/>
<path d="M273.587 523.509H197.663L185.277 560.143H147.304L213.741 375.669H257.509L323.946 560.143H285.972L273.587 523.509ZM262.772 491.629L235.614 411.772L208.455 491.629H262.772Z" fill="white"/>
<path d="M427.56 408.854H383.261V560.121H347.411V408.854H303.112V375.647H427.538V408.854H427.56Z" fill="white"/>
<path d="M596.793 375.647V560.121H560.942V483.692H484.487V560.121H448.637V375.647H484.487V450.484H560.942V375.647H596.793Z" fill="white"/>
<path d="M802.959 467.884C802.959 521.917 763.681 563.548 709.098 563.548C654.516 563.548 615.237 521.917 615.237 467.884C615.237 413.85 654.516 372.485 709.098 372.485C763.681 372.485 802.959 413.85 802.959 467.884ZM767.109 467.884C767.109 437.308 747.337 406.488 709.12 406.488C670.904 406.488 651.132 437.33 651.132 467.884C651.132 498.438 670.904 529.545 709.12 529.545C747.337 529.545 767.109 498.703 767.109 467.884Z" fill="white"/>
<path d="M998.554 455.768V560.121H979.313L974.558 533.768C962.173 551.698 942.667 563.548 913.916 563.548C859.09 563.548 820.055 521.917 820.055 467.884C820.055 413.85 859.068 372.485 913.916 372.485C944.503 372.485 970.334 385.396 986.943 406.488L957.418 426.253C947.665 414.403 933.157 406.488 913.916 406.488C875.699 406.488 855.927 437.33 855.927 467.884C855.927 498.438 875.699 529.28 913.916 529.28C946.073 529.28 963.478 510.576 968.742 486.853H916.282V455.746H998.532L998.554 455.768Z" fill="white"/>
<path d="M1128.53 526.936V560.143H1019.65V375.669H1126.16V408.876H1055.24V450.506H1120.08V483.714H1055.24V526.936H1128.53Z" fill="white"/>
<path d="M1296.99 375.647V560.121H1264.57L1182.85 438.103V560.121H1147V375.647H1179.42L1261.14 497.664V375.647H1296.99Z" fill="white"/>
<path d="M708.744 478.01C714.681 478.01 719.493 473.199 719.493 467.265C719.493 461.331 714.681 456.52 708.744 456.52C702.808 456.52 697.996 461.331 697.996 467.265C697.996 473.199 702.808 478.01 708.744 478.01Z" fill="white"/>
<path d="M644.187 456.52V477.656L678.202 467.088L644.187 456.52Z" fill="white"/>
<path d="M739.265 467.265L773.876 477.656V456.52L739.265 467.265Z" fill="white"/>
<path d="M698.46 531.91H719.603L709.032 497.907L698.46 531.91Z" fill="white"/>
<path d="M709.032 436.865L719.603 402.265H698.46L709.032 436.865Z" fill="white"/>
<path d="M698.46 373.038H719.603L709.032 362.293L698.46 373.038Z" fill="white"/>
<path d="M719.603 562.951H698.46L709.032 573.696L719.603 562.951Z" fill="white"/>
<path d="M615.835 478.562V457.426L605.108 467.994L615.835 478.562Z" fill="white"/>
<path d="M802.384 457.426V478.562L813.133 467.994L802.384 457.426Z" fill="white"/>
<path d="M222.433 822.617L194.522 825.137L191.182 839.022L177.227 840.282L195.517 770.242L211.618 768.783L242.182 834.401L228.227 835.661L222.455 822.617H222.433ZM217.39 811.253L204.762 782.799L197.441 813.066L217.412 811.253H217.39Z" fill="white"/>
<path d="M290.794 812.071L302.206 818.416C296.676 826.641 287.542 832.212 276.197 833.097C256.115 834.622 240.479 820.406 238.953 800.531C237.427 780.655 250.719 764.317 270.801 762.769C282.146 761.907 292.032 765.931 298.733 773.315L288.405 781.318C284.49 777.228 278.829 774.73 271.752 775.282C257.686 776.366 251.272 788.26 252.135 799.514C252.997 810.855 261.158 821.644 275.224 820.583C282.301 820.03 287.52 816.714 290.771 812.071H290.794Z" fill="white"/>
<path d="M349.202 814.592L349.976 826.818L309.858 829.382L305.501 761.42L344.735 758.922L345.509 771.148L319.39 772.806L320.363 788.15L344.248 786.624L345.022 798.85L321.137 800.376L322.154 816.294L349.158 814.569L349.202 814.592Z" fill="white"/>
<path d="M424.154 767.058L407.832 767.854L410.553 823.612L397.327 824.253L394.607 768.495L378.285 769.291L377.688 757.043L423.557 754.788L424.154 767.036V767.058Z" fill="white"/>
<path d="M485.482 752.378L488.07 820.406L474.844 820.915L473.76 792.726L445.562 793.81L446.646 821.998L433.421 822.507L430.811 754.478L444.036 753.97L445.098 781.561L473.296 780.478L472.234 752.864L485.46 752.356L485.482 752.378Z" fill="white"/>
<path d="M536.615 806.831L536.946 819.08L496.783 820.185L494.881 752.135L534.182 751.051L534.514 763.3L508.35 764.029L508.77 779.395L532.7 778.731L533.032 790.98L509.102 791.643L509.544 807.583L536.57 806.831H536.615Z" fill="white"/>
<path d="M659.248 749.194L638.083 817.51L626.207 817.643L612.495 773.049L599.734 817.93L587.858 818.063L565.233 750.211L579.232 750.056L593.94 796.595L607.165 749.769L617.272 749.659L631.493 796.286L645.205 749.349L659.226 749.194H659.248Z" fill="white"/>
<path d="M696.824 803.979L668.803 803.935L664.203 817.444H650.181L674.818 749.349H690.963L715.379 817.532H701.358L696.802 803.979H696.824ZM692.865 792.196L682.891 762.703L672.806 792.173L692.865 792.218V792.196Z" fill="white"/>
<path d="M759.722 818.085L746.01 793.389C745.723 793.389 745.325 793.389 744.949 793.389L734.532 793.257L734.222 817.753L721.085 817.598L721.926 749.526L745.457 749.813C760.739 750.012 770.736 759.475 770.581 772.408C770.471 780.964 765.826 787.531 758.373 790.825L774.761 818.262L759.678 818.085H759.722ZM734.687 781.871L745.103 782.004C751.915 782.092 757.002 779.041 757.09 772.231C757.157 766.107 752.733 762.15 745.347 762.061L734.93 761.929L734.687 781.871Z" fill="white"/>
<path d="M873.62 786.801C873.045 806.721 858.095 821.666 837.969 821.092C817.843 820.495 803.8 804.731 804.375 784.789C804.95 764.847 819.9 750.012 840.026 750.609C860.152 751.184 874.217 766.881 873.62 786.823V786.801ZM860.395 786.425C860.727 775.15 853.76 763.565 839.65 763.145C825.54 762.725 817.91 773.89 817.6 785.165C817.268 796.551 824.235 808.136 838.345 808.534C852.455 808.932 860.063 797.789 860.395 786.403V786.425Z" fill="white"/>
<path d="M938.996 755.451L936.143 823.479L924.178 822.971L895.935 776.697L894.033 821.689L880.808 821.136L883.661 753.107L895.626 753.616L923.868 799.889L925.748 754.898L938.973 755.451H938.996Z" fill="white"/>
<path d="M1014.43 814.304L986.457 812.624L981.083 825.845L967.105 825.005L995.657 758.502L1011.78 759.475L1032.17 828.918L1018.19 828.078L1014.43 814.304ZM1011.16 802.321L1002.93 772.298L991.168 801.105L1011.18 802.299L1011.16 802.321Z" fill="white"/>
<path d="M1114.33 766.793L1109.18 834.688L1095.98 833.693L1099.38 788.68L1076.6 820.03L1072.25 819.699L1054.35 785.276L1050.95 830.267L1037.85 829.272L1043.01 761.376L1056.99 762.437L1075.98 798.983L1100.27 765.709L1114.33 766.771V766.793Z" fill="white"/>
<path d="M1157.24 839.066L1145.52 813.376C1145.23 813.354 1144.83 813.309 1144.45 813.287L1134.08 812.337L1131.85 836.744L1118.76 835.551L1124.97 767.721L1148.44 769.866C1163.65 771.259 1172.87 781.473 1171.7 794.362C1170.93 802.896 1165.75 809.064 1158.08 811.784L1172.25 840.437L1157.24 839.066ZM1135.12 800.995L1145.49 801.946C1152.28 802.565 1157.59 799.934 1158.23 793.146C1158.79 787.044 1154.69 782.755 1147.33 782.092L1136.96 781.141L1135.14 800.995H1135.12Z" fill="white"/>
<path d="M674.199 931.281C651.088 913.152 617.626 884.19 581.466 844.018C554.971 844.438 528.719 845.057 502.799 845.831C590.136 955.291 674.022 1006.43 674.022 1006.43C674.022 1006.43 758.417 955.733 846.108 845.853C820.188 845.057 793.914 844.46 767.419 844.018C731.082 884.322 697.421 913.24 674.199 931.281Z" fill="#E1B308"/>
<path d="M373.751 282.901C427.117 260.748 543.581 219.228 666.392 219.228C668.67 219.228 670.948 219.228 673.226 219.272H674H674.774C677.052 219.25 679.352 219.228 681.608 219.228C804.441 219.228 920.927 260.77 974.249 282.901C975.244 299.106 975.974 319.491 975.399 340.339H1036.64C1037.92 288.826 1032.15 241.734 1032.15 241.734C1032.15 241.734 865.769 158.031 681.608 158.031C679.087 158.031 676.521 158.031 674 158.075C671.457 158.053 668.935 158.031 666.392 158.031C482.253 158.031 315.851 241.734 315.851 241.734C315.851 241.734 309.968 287.897 311.715 340.339H372.977C372.181 319.247 372.8 298.952 373.729 282.901H373.751Z" fill="#E1B308"/>
<path d="M856.945 907.381C786.151 986.486 715.379 1037.84 674 1064.35C633.527 1038.4 564.658 988.52 495.412 912.223C476.613 891.53 458.92 870.084 442.289 847.998C409.469 849.368 377.201 851.027 345.553 852.928C489.021 1066.98 673.978 1159 673.978 1159C673.978 1159 858.957 1066.98 1002.4 852.928C970.754 851.004 938.487 849.346 905.667 847.998C890.318 868.36 874.085 888.191 856.901 907.381H856.945Z" fill="#1EB1E0"/>
<path d="M262.75 327.206C261.335 284.404 266.046 237.49 270.314 205.322C293.602 194.709 327.307 180.449 368.134 166.322C498.707 121.132 601.415 111.647 664.556 111.647C667.365 111.647 670.152 111.647 672.961 111.691H674H675.039C677.826 111.647 680.657 111.647 683.444 111.647C797.872 111.647 907.79 141.383 979.866 166.322C1020.67 180.449 1054.38 194.709 1077.66 205.322C1081.93 237.512 1086.64 284.404 1085.23 327.206C1085.07 331.584 1084.9 335.961 1084.7 340.339H1166.46C1166.61 336.868 1166.75 333.397 1166.88 329.904C1169.69 245.36 1151.86 150.625 1151.86 150.625C1151.86 150.625 929.441 30 683.444 30C680.303 30 677.14 30 674 30.0663C670.837 30.0221 667.719 30 664.556 30C418.581 30 196.136 150.625 196.136 150.625C196.136 150.625 178.311 245.36 181.12 329.904C181.23 333.397 181.385 336.868 181.54 340.339H263.303C263.104 335.961 262.927 331.606 262.772 327.206H262.75Z" fill="#1EB1E0"/>
</g>
<defs>
<filter id="filter0_d_324_2651" x="0" y="0" width="1348" height="1189" filterUnits="userSpaceOnUse" color-interpolation-filters="sRGB">
<feFlood flood-opacity="0" result="BackgroundImageFix"/>
<feColorMatrix in="SourceAlpha" type="matrix" values="0 0 0 0 0 0 0 0 0 0 0 0 0 0 0 0 0 0 127 0" result="hardAlpha"/>
<feOffset/>
<feGaussianBlur stdDeviation="15"/>
<feComposite in2="hardAlpha" operator="out"/>
<feColorMatrix type="matrix" values="0 0 0 0 0 0 0 0 0 0 0 0 0 0 0 0 0 0 0.5 0"/>
<feBlend mode="normal" in2="BackgroundImageFix" result="effect1_dropShadow_324_2651"/>
<feBlend mode="normal" in="SourceGraphic" in2="effect1_dropShadow_324_2651" result="shape"/>
</filter>
</defs>
</svg>
